<svg xmlns:svg="http://www.w3.org/2000/svg" xmlns="http://www.w3.org/2000/svg" version="1.1" id="Layer_1" x="0" y="0" viewBox="0 0 360 360" enable-background="new 0 0 612 792" xml:space="preserve" width="100" height="100"><style>.s0{fill:#fff;stroke-linecap:round;stroke-linejoin:round;stroke-width:0.61;stroke:#000;}</style><metadata id="metadata87"/><defs id="defs85"/><g id="g3" transform="translate(-126.44999,-209.377)"><path d="m485.69 541.29c0 15.1-11.9 27.32-26.61 27.32H153.82c-14.7 0-26.61-12.22-26.61-27.32V237.46c0-15.1 11.9-27.32 26.61-27.32h305.27c14.7 0 26.61 12.22 26.61 27.32v303.83z" id="path5" style="fill:#54beed;stroke-width:1.52;stroke:#000"/><g id="g7" transform="translate(0,-14)"><path d="m151.2 255.3c-0.3 0.6-0.7 1-1.2 1-0.7 0.1-1.2-0.4-1.5-1.5-0.1-0.3-0.3-0.9-0.4-1.8-0.1-0.8-0.3-1.6-0.4-2.4-0.1-1.8-0.4-2.6-0.7-2.6-0.2 0-0.5 0.1-1 0.2l-0.7 0.2c-0.6 0.2-1.1 0.5-1.7 0.7-0.4 0.1-0.8 0.3-1.2 0.4-0.3 0.2-0.7 0.3-1 0.5-2 0.6-3 2.4-2.9 5.4 0 0.8 0 2.4 0.1 4.7 0 1.7 0 3.4 0 5.1 0 0.8 0.1 1.2 0.3 1.2l0.4-0.1c1-0.5 2-1 3-1.4 2-0.9 3.4-1.4 4-1.5 0.8-0.1 1.5 0.1 2 0.6 0.7 0.6 1 1.4 1 2.6 0 0.5-0.8 1.1-2.4 1.7l-0.5 0.2c-0.5 0.2-0.9 0.4-1.4 0.6-0.4 0.3-0.9 0.6-1.3 0.8-0.4 0.4-1.2 0.8-2.2 1.2-0.4 0.2-0.7 0.3-1.1 0.5-1.1 0.5-1.8 1.4-1.8 2.6 0 1.4 0 2.8 0 4.2 0 1.4 0.1 2.2 0.4 2.3 0.4 0 0.8 0 1.1 0 0.3 0 0.7 0.2 0.9 0.7l0.2 0.4c0.3 0.7 0.4 1.4 0.4 2 0 0.6-0.2 1.1-0.7 1.6l-0.6 0.5-0.4 0.3c-0.7 0.4-1.4 0.9-2.3 1.6l-0.1 0.1c-0.4 0.2-0.7 0.4-1.1 0.6-0.3 0.1-0.6 0.3-0.9 0.5l-0.5 0.1c-0.9 0.3-1.6 0-2.1-0.9-0.2-0.3-0.3-0.6-0.5-0.9-0.1-0.3-0.2-0.6-0.2-0.9 0-1.4 0.9-2.6 2.6-3.5 0.1-0.2 0.1-0.5 0.1-0.7 0-0.8 0-1.6 0-2.3 0 0.2 0 0.1 0-0.2-0.1-0.3-0.1-0.7-0.1-1.1 0-0.7 0-1.4 0-2.2 0-0.6 0-1.2-0.1-1.8-0.1-2.1-0.1-4.3-0.2-6.4 0-0.7-0.1-2.5 0-5.6 0-0.8 0.1-2 0.2-3.6 0.1-1.6 0.2-2.8 0.2-3.6 0-1.1-0.1-1.7-0.4-1.9-0.5-0.2-1-0.5-1.5-0.8-0.2-0.2-0.5-0.6-0.8-1.1-0.7-1.1-1-2.1-0.9-3 0-1 0.5-1.7 1.6-2.2l0.7-0.4c0.4-0.1 0.7-0.1 1.1-0.2 0.8-0.3 1.6-0.5 2.4-0.8 1.4-0.3 2.9-0.7 4.3-1 1.3-0.2 2.6-0.3 3.9-0.5 0.9-0.1 2.2-0.4 3.9-0.7l0.4 0c0.6 0 0.9 0.2 1.2 0.5 0.2 0.3 0.4 1 0.5 1.9 0 1.5 0 2.9 0 4.4-0.1 3.5-0.1 5.3-0.1 5.7zM178.2 274.6" id="path9"/><path d="m178.2 274.6c0 0.7-0.1 1.2-0.2 1.5-0.2 0.3-0.5 0.6-1 0.9-0.5 0.3-0.9 0.5-1.2 0.5-0.4 0.1-0.9-0.1-1.5-0.6-1-0.8-2.1-1.6-3.1-2.4-1.3-1.1-2.5-2.2-3.8-3.3-0.5-0.5-1.4-1.3-2.8-2.6-0.3-0.3-0.6-0.6-0.9-1l-0.6 0.1c-1.5 0.7-2.4 1-2.8 1l-0.1 0.2c0 1.8 0 3.5-0.1 5.3 0 0.6 0 1.5 0.1 2.6 0.3 0 0.6 0 1 0 0.7 0 1.2 0.5 1.7 1.4 0.3 0.6 0.5 1.1 0.4 1.6 0 0.9-0.7 1.7-2.2 2.6-0.2 0.1-0.5 0.3-1.1 0.6-0.5 0.2-1 0.4-1.4 0.6-0.5 0.2-1 0.3-1.5 0.5H157c-0.3 0-0.6 0-0.9 0.1-0.4 0.1-0.8 0.1-1.3 0.2-0.3 0-0.5-0.1-0.7-0.4l-0.2-0.4c-0.3-0.8-0.5-1.5-0.5-1.9 0-0.7 0.3-1.2 0.9-1.6 0.5-0.3 1-0.5 1.5-0.8 0.2-0.2 0.4-0.8 0.4-1.8 0-0.6 0-1.4-0.1-2.6-0.1-1.9-0.1-3-0.1-3.1 0-2.2 0-4.4 0.1-6.5 0-4.3 0-8.5 0-12.8 0-0.5 0-0.9-0.1-1.4-0.1-0.1-0.3-0.2-0.8-0.2-0.8 0-1.5-0.5-2-1.8-0.3-0.7-0.4-1.3-0.4-1.8 0-0.5 0.2-1 0.7-1.5 0.7-0.4 1.3-0.8 2-1.2 0.4-0.3 0.8-0.5 1.2-0.8 0.3 0 0.6 0 0.8-0.1 1.3-0.4 2.7-0.8 4-1.2 0.3-0.1 0.7-0.1 1-0.2 1.5-0.3 2.8-0.4 3.7-0.4 3.1 0 5.9 1.4 8.5 3.9 1.7 1.8 2.7 3.5 2.8 5.3 0 0.5 0.1 0.8 0.1 1 0 2.9-1.9 6.1-5.6 9.7l-0.5 0.5c-1.7 1-2.5 1.7-2.5 2 0 0.4 0.8 1.6 2.4 3.3 0.5 0.5 1.5 1.5 2.8 2.9 0.3 0.3 0.6 0.6 0.8 0.9 0.5 0.4 1 0.8 1.4 1.2 0.5 0.3 1 0.6 1.5 0.9 0.2 0.3 0.3 0.6 0.3 1.1zm-5.8-27.3c-0.5-0.4-1.5-0.5-2.8-0.5-1.8 0.1-3.5 0.3-5.1 0.9-2.3 0.8-3.7 1.6-4.1 2.4-0.1 2.1-0.3 4.2-0.4 6.3 0 0.6 0 1.9-0.1 3.8 0 0.4 0 1.1-0.1 2.1 0 0.6 0.2 0.9 0.7 0.8 0.1 0 0.5-0.2 1.2-0.5 0.4-0.2 0.9-0.4 1.3-0.6 0.6-0.2 1.9-1.1 3.8-2.5 1-0.7 2.2-1.8 3.4-3.2 1.4-1.5 2.3-2.8 2.8-4 0.4-0.9 0.6-1.7 0.6-2.4 0.2-1.1-0.3-1.9-1.2-2.6z" id="path11"/><path d="m190.6 246.5-0.5 0.3c-0.6 0.2-1.2 0.4-1.8 0.6-0.5 0.2-0.8 2.4-0.8 6.8 0 5.2 0 10.4 0 15.6 0 0.9 0.1 1.5 0.1 1.5 0.4 0.1 0.8 0.1 1.2 0.2 1 0.2 1.6 1 1.5 2.5 0 0.8-0.7 1.5-2.1 2.2-0.3 0.1-0.5 0.3-0.8 0.4l-0.1 0.1-0.5 0.1-0.2 0.1c-0.6 0.3-1.2 0.6-1.8 0.8-0.5 0.2-1 0.3-1.4 0.5l-0.6 0.2-0.4 0.1c-0.6 0.1-1.1-0.3-1.6-1.4-0.3-0.6-0.4-1-0.4-1.3 0-0.6 0.4-1.2 1.2-1.8l0.2-0.2c0.3-0.2 0.6-0.5 0.8-0.7 0.3-0.3 0.5-0.4 0.6-0.6 0-0.6 0-1.1 0-1.6 0-0.6 0-1.1 0-1.7 0-1 0-2 0.1-3.1 0-1.9 0.1-3.8 0.1-5.6-0.1-1.9-0.1-3.7-0.2-5.6 0-0.7 0-1.9 0-3.9 0-0.2 0-0.9-0.1-2.1l-0.5-0.4-0.6-0.1c-0.3-0.1-0.7-0.5-1.3-1.3-0.4-0.5-0.5-0.9-0.5-1.4 0-0.4 0.2-0.9 0.5-1.4 0.3-0.3 1.4-0.8 3.4-1.3 1.3-0.4 2.6-0.6 3.8-0.6 0.9 0 1.6 0.2 2 0.7l0.2 0.1 0.3 0.4c0.5 0.7 0.7 1.4 0.7 2-0.1 0.6-0.3 0.9-0.5 0.9z" id="path13"/><path d="m215.5 268.6-0.1 0.7c-0.3 0.7-0.7 1.2-1.1 1.4-1.1 0.3-2.2 0.6-3.3 0.8-1.1 0.3-2.2 0.7-3.3 1l-0.3 0.1c-0.7 0.2-1.4 0.4-2.1 0.5-0.5 0.2-1 0.3-1.5 0.5-1.3 0.4-2.7 0.9-4 1.3l-0.6 0.3-0.7 0.3c-0.4 0.2-0.9 0.4-1.3 0.5-0.3 0.1-0.5 0.2-0.8 0.3-0.4 0.2-0.9 0.3-1.6 0.4-0.8 0.1-1.4-0.1-1.8-0.6-0.2-0.3-0.5-1.1-0.7-2.2-0.1-0.5 0.2-1 1-1.5 0.5-0.3 1.1-0.5 1.7-0.6 0.1 0 0.2-2.9 0.4-8.6 0-1.9 0.1-3.7 0.1-5.6l0-0.2c0-0.2 0-0.5 0-0.8 0-1.5 0.1-2.9 0.1-4.4 0-0.8 0-1.3 0-1.5-0.1-0.3-0.4-0.5-0.9-0.5l-0.7 0c-0.6 0-1.1-0.6-1.8-1.8-0.3-0.6-0.4-1.1-0.2-1.5 0.2-0.5 0.7-0.9 1.4-1.1 0.3-0.1 0.9-0.2 1.7-0.5 0.6-0.2 1.2-0.4 1.7-0.6 1.6-0.4 3.2-0.8 4.8-1.2 1.6-0.4 3.9-0.8 6.9-1.2 0.6-0.1 1.1-0.2 1.7-0.2 1-0.1 1.9-0.3 2.8-0.4 0.9-0.1 1.3 0.7 1.2 2.4l0 0.4c0 0.9 0 1.8-0.1 2.7 0 0.3 0 0.6 0 0.9 0 0.8-0.1 1.6-0.3 2.4-0.2 0.4-0.5 0.5-0.9 0.5l-0.2 0-0.5-0.2c-0.6-0.2-1-0.4-1.2-0.7-0.2-0.3-0.3-0.8-0.4-1.5-0.1-0.4-0.1-0.8-0.2-1.2 0-0.3 0-0.6 0-0.9 0-0.3-0.2-0.4-0.5-0.4l-0.6 0.1c-0.3 0-0.5 0.1-0.8 0.1-0.7 0.1-1.8 0.4-3.3 0.9-0.5 0.1-1 0.2-1.5 0.3-1.6 0.4-2.6 0.7-2.9 1-0.5 0.5-0.7 1.5-0.8 3.1 0 0.4 0 0.9 0 1.3 0 1.5-0.1 2.7-0.3 3.4-0.1 0.4-0.1 0.7-0.2 1.1-0.1 0.4-0.1 0.7-0.1 0.9 0 0.5 0.2 0.7 0.7 0.7 0.1 0 1.1-0.3 3.2-0.8 0.3-0.1 1.2-0.4 2.6-0.8 1.1-0.4 1.9-0.6 2.6-0.6 1.1-0.1 1.8 0.3 2.1 1.2 0.2 0.5 0.3 0.9 0.3 1.2 0 0.5-0.4 0.8-1.1 1-0.9 0.2-1.8 0.4-2.7 0.7-1.5 0.5-3 1-4.5 1.5-0.9 0.4-1.9 0.8-2.8 1.3-0.1 0.1-0.2 0.4-0.3 1 0 1.7 0.1 3.5 0.1 5.2 0.1 0.4 0.3 0.6 0.5 0.6 0.2 0 1.2-0.4 2.7-1.1 0.4-0.1 1.3-0.3 2.5-0.7 0.6-0.2 1.9-0.5 3.7-1l0.6-0.1c1.2-0.2 1.9-0.5 2-0.7 0.2-0.4 0.3-1.2 0.5-2.4 0-0.3 0.1-0.5 0.1-0.8l0.1-0.5 0.1-0.7 0.1-0.5c0.3-0.9 0.6-1.3 1.1-1.4 0.7-0.1 1.3 0.3 1.9 1.1 0.2 0.2 0.2 0.9 0.2 1.9 0 0.6 0 1.2 0 1.8l0 0.2c0 0.3-0.1 0.6-0.1 0.9-0.1 1-0.1 1.5-0.1 2.1z" id="path15"/><path d="m245 244.3c0 0.4-0.3 0.7-1 0.9-0.3 0.1-0.7 0.2-1 0.3-0.7 0.2-1.2 0.6-1.3 1.1 0 0.1-0.1 0.7-0.1 1.8 0 1.6-0.1 3.2-0.1 4.9 0 2.2-0.1 4.5-0.1 6.7l0 0.2c0 0.2 0 0.5 0 0.8 0 0.4 0 0.9 0 1.3 0 1.2 0 2.3-0.1 3.3 0 0.5 0 1 0 1.6l0 0.6c0 0.3-0.3 0.7-1 1.1-0.7 0.4-1.3 0.6-1.7 0.7-1 0.1-1.9-0.4-2.9-1.5-0.1 0-0.7-1-1.9-2.8-0.2-0.2-0.3-0.5-0.5-0.7l-0.4-0.7c-0.6-1-1.2-2.1-1.9-3.1-1.7-3.4-3.5-7-5.2-10.6-0.3-0.7-0.6-1-0.7-1-0.4 0.3-0.6 1.6-0.6 3.7 0 0.4 0 0.8 0 1.1 0 0.6 0 1.5 0.1 2.8 0.1 1.2 0.1 2.1 0.1 2.8 0 0.7-0.1 1.8-0.3 3.3-0.2 1.5-0.3 2.6-0.3 3.3 0 0.7 0.2 1.1 0.8 1.2l0.6 0c0.8 0 1.4 0.4 1.8 1.3l0.1 0.3c0.1 0.2 0.1 0.4 0.1 0.7 0 1.2-1.7 2-5.2 2.5-0.4 0.1-0.8 0.1-1.2 0.2l-0.4 0c-1.6-0.1-2.4-0.4-2.4-1-0.1-0.6-0.1-1.1-0.1-1.4 0-0.4 0.1-0.7 0.4-0.9 0.5-0.2 1.2-0.5 1.9-1.1 0.1-0.2 0.2-0.6 0.2-1.2 0-0.7 0-1.3 0-2l0-0.1c0.1-4.7 0.2-9.3 0.3-14 0-1.6 0-2.5-0.1-2.7l-0.6-0.2-0.5-0.2-0.3-0.1c-0.3-0.1-0.6-0.3-0.9-0.7l-0.2-0.3c-0.5-0.9-0.7-1.6-0.6-2 0.1-0.6 0.7-1 1.6-1.3 1-0.1 2.1-0.2 3.1-0.3 0.3 0 0.6-0.1 0.8-0.1 0.4-0.1 0.7-0.1 0.8 0 1.7-0.1 2.7 0.5 3.2 1.8l0.2 0.4 0.2 0.4 0.1 0.6c0.2 0.3 0.3 0.6 0.5 0.9 1 2.3 2 4.5 3 6.8 0.2 0.3 0.6 1.4 1.3 3.1 0.6 1.5 1.3 2.9 2 4.1 0.4 0.6 0.8 1.3 1.2 1.9 0.4 0.7 0.8 1 1.1 1 0.3 0 0.5-0.5 0.5-1.4 0-0.3 0-0.6 0-1 0-0.4 0-0.7 0-0.9v-0.1l0-0.4c0-0.5 0-1 0-1.4 0-1.7 0.1-3.9 0.3-6.6 0.1-1.3 0.2-2.3 0.3-2.9 0.1-0.4 0.2-0.8 0.2-1.2 0.1-0.3 0.1-0.6 0.1-0.7 0-0.4-0.2-0.6-0.5-0.7-0.4 0-0.7 0-1.1 0-0.4 0-0.8-0.4-1.2-1.2-0.3-0.4-0.4-0.8-0.4-1.1 0-0.4 0.9-0.9 2.8-1.5l0.2-0.1c0.3-0.1 0.6-0.2 0.9-0.3 0.5-0.2 1.4-0.3 2.6-0.3 2.4-0.2 3.5 0.6 3.4 2.3z" id="path17"/><path d="m274.7 252.3c0 2.5-1.8 5.3-5.3 8.5-2.7 2.5-6.5 4.5-11.3 6-2.6 0.8-4.2 1.4-5 1.5-0.1 0-1.1 0.2-2.9 0.4-0.4 0.1-0.9 0.1-1.3 0.2-0.7 0.1-1.5-0.3-2.2-1.2-0.4-0.6-0.6-1.1-0.5-1.5 0.1-0.4 0.2-0.6 0.5-0.8 0.1-0.1 0.4-0.2 0.9-0.3l0.5-0.1c0.2-0.1 0.5-0.1 0.7-0.2 0.6-0.2 0.9-0.4 0.9-0.7 0-0.3 0-0.5 0-0.7 0-0.3 0-0.6 0-0.9 0-1.7 0.1-3.3 0.1-5 0-2.4 0.1-4.8 0.1-7.1l0-0.4c0-1 0-1.7 0-2.2 0-0.6 0-0.9-0.1-1-0.3-0.1-0.7-0.2-1-0.3l-0.5-0.3c-0.9-0.7-1.2-1.3-1.1-2 0.1-0.6 0.2-0.9 0.4-1.1 0.2-0.2 0.6-0.3 1.3-0.3l0.5 0c0.3 0 0.6-0.1 0.9-0.1 0.5-0.1 0.9-0.2 1.4-0.3 1.7-0.3 4.1-0.5 7.2-0.5 3.8 0 7.3 0.8 10.6 2.4 1.6 0.8 2.9 1.9 4 3.4 0.7 1.5 1.2 3.1 1.2 4.6zm-4.7-4.1c-0.4-0.4-1.2-0.9-2.3-1.3-0.3-0.1-0.5-0.2-0.8-0.3-1.6-0.7-3.8-1.1-6.6-1-0.6 0.1-1.2 0.2-1.9 0.2-1.7 0.2-2.7 0.4-2.9 0.4-0.8 0.3-1.2 1-1.3 2-0.1 1-0.1 2-0.2 2.9-0.1 1.8-0.1 3.6-0.2 5.5 0 1.8-0.1 3.6-0.1 5.4-0.2 0.6-0.3 1-0.3 1.4 0 0.4 0 0.6 0 0.6 0.2 0.2 0.4 0.3 0.7 0.3 0.3 0 1.2-0.3 2.7-0.8 0.3-0.1 0.7-0.2 1-0.4l0.4-0.2c4.8-2.2 8.4-4.8 10.6-7.8 1.4-1.9 2.1-3.3 2.1-4.2 0.2-1.1-0.1-2-0.9-2.7z" id="path19"/><path d="m298.6 249.7c-0.1 0.3-0.1 0.5-0.1 0.6-0.1 0.5-0.5 0.8-1.2 0.8-0.7 0-1.4-0.5-2.1-1.5l-0.2-0.2c-0.1-0.7-0.1-1.4-0.2-2.2-0.2-2-1.1-3-2.9-3-0.9 0-1.9 0.2-2.8 0.7-0.4 0.2-0.7 0.3-1.1 0.5-0.9 0.4-2 1.2-3.1 2.2-1.3 1.2-2 2.2-2 2.9 0 0.8 1.8 1.9 5.5 3.3 1.4 0.5 2.7 1 4.1 1.5 0.4 0.2 0.9 0.3 1.3 0.5 3.2 1.3 4.8 2.7 4.7 4.2 0 0.8-0.5 1.8-1.5 2.9-0.9 1-1.9 1.7-2.8 2.2-1.5 0.7-3.2 1.1-5.1 1.1-0.5 0-0.9 0-1.4 0-0.8 0-1.5 0-2.2-0.2-0.2 0-0.6-0.2-1.2-0.4-0.5-0.2-1-0.3-1.3-0.3-0.6 0-0.9 0.5-0.9 1.5-0.1 0.2-0.2 0.2-0.5 0.3-0.3 0-0.5 0-0.8-0.1l-0.7-0.3c-0.3-0.1-0.6-0.3-0.6-0.6 0 0-0.1-0.3-0.2-0.9 0-0.3-0.1-0.6-0.2-0.9l0-0.2c0-0.2 0-0.5 0-1 0-1.2 0-2.5 0-3.7 0-0.5 0-1 0-1.3-0.1-0.2 0.1-0.3 0.4-0.4 0.3-0.1 0.5-0.1 0.7-0.1 0.3 0.1 0.6 0.1 0.9 0.2 0.6 0.3 1 0.5 1.1 0.8l0 0.5c0 0.3 0.1 0.8 0.3 1.4 0.6 1.6 1.7 2.5 3.2 2.6 0.7 0 1.2 0.1 1.4 0.1l0.5 0c0.7 0 1.3-0.1 2-0.3l0.2 0c0.3-0.1 0.5-0.1 0.8-0.2l0.6-0.2c0.5-0.1 1.2-0.4 2.1-0.9 0.2-0.2 0.4-0.4 0.4-0.7 0-0.3-0.5-0.7-1.5-1.2-0.5-0.3-1-0.5-1.4-0.8l-0.1-0.1c-0.6-0.3-1.2-0.5-1.8-0.8-0.5-0.3-0.9-0.5-1.4-0.8-0.2-0.1-1.1-0.5-2.7-1.2-2.1-0.9-3.5-1.8-4.2-2.7-0.3-0.4-0.7-0.8-1-1.2-0.4-0.5-0.6-1-0.5-1.4 0.1-0.4 0.1-0.8 0.2-1.2 0.1-0.3 0.2-0.5 0.2-0.8 0.3-1 1-2.1 2.2-3.4 1.4-1.6 3.1-2.7 5-3.4 1.4-0.5 2.4-0.7 3-0.7 0.6 0 1.4 0.1 2.3 0.3 1 0.2 1.7 0.5 2.3 0.7 0.4 0.2 0.7 0.4 0.9 0.7l0.2-0.4 0.1-0.3 0.2-0.5c0.2-0.3 0.6-0.5 1.1-0.5 0.3 0 0.7 0.1 1.2 0.3 0.7 0.4 1 1.6 1 3.4-0.4 1.6-0.4 3.2-0.4 4.8z" id="path21"/><path d="m333.7 249.4c-0.3 0.3-0.7 0.5-1.2 0.5-0.7 0-1.2-0.3-1.5-0.9-0.1-0.2-0.3-0.5-0.5-1-0.1-0.5-0.3-0.9-0.5-1.4-0.2-1-0.4-1.5-0.7-1.5-0.2 0-0.5 0-1 0.1l-0.7 0.1c-0.6 0.1-1.1 0.2-1.7 0.3-0.4 0.1-0.8 0.1-1.2 0.2-0.3 0.1-0.7 0.2-1 0.2-2 0.2-3 1.2-2.9 2.8 0 0.4 0.1 1.3 0.1 2.5 0 0.9 0 1.8 0 2.7 0 0.4 0.1 0.6 0.3 0.6l0.4 0c1-0.2 2-0.3 3.1-0.5 2-0.3 3.4-0.5 4.1-0.5 0.8 0 1.5 0.2 2.1 0.5 0.7 0.4 1 0.9 1 1.6 0 0.3-0.8 0.5-2.4 0.7l-0.5 0.1c-0.5 0.1-0.9 0.1-1.4 0.2-0.4 0.1-0.9 0.2-1.3 0.3-0.4 0.2-1.2 0.3-2.2 0.4-0.4 0-0.8 0.1-1.1 0.1-1.2 0.2-1.8 0.6-1.9 1.2 0 0.7 0 1.5 0 2.2 0 0.8 0.2 1.2 0.5 1.3 0.4 0.1 0.8 0.1 1.2 0.2 0.3 0.1 0.7 0.2 1 0.5l0.2 0.2c0.3 0.4 0.5 0.8 0.5 1.2 0 0.3-0.2 0.6-0.7 0.7l-0.6 0.2-0.4 0.1c-0.7 0.1-1.5 0.3-2.4 0.5l-0.1 0c-0.4 0-0.8 0.1-1.1 0.1-0.3 0-0.6 0.1-1 0.1l-0.6 0c-0.9 0-1.7-0.3-2.2-0.8l-0.5-0.5-0.2-0.5c0-0.7 0.9-1.2 2.7-1.5l0.1-0.4c0-0.4 0-0.8 0-1.2V261l-0.1-0.6c0-0.4 0-0.7 0-1.1 0-0.3 0-0.6-0.1-0.9-0.1-1.1-0.1-2.2-0.2-3.4 0-0.4-0.1-1.3-0.1-2.9 0-0.4 0-1.1 0.1-1.9 0.1-0.8 0.1-1.5 0.1-1.9 0-0.6-0.1-0.9-0.4-1-0.5-0.1-1-0.3-1.5-0.4-0.2-0.1-0.5-0.3-0.9-0.6-0.7-0.6-1-1.1-0.9-1.6 0-0.5 0.5-0.9 1.6-1.1 0.2-0.1 0.5-0.1 0.7-0.2 0.4 0 0.7 0 1.1-0.1 0.8-0.1 1.6-0.2 2.4-0.4 1.4-0.2 2.9-0.3 4.3-0.5 1.3-0.1 2.6-0.2 3.9-0.2 0.9-0.1 2.2-0.2 3.9-0.3h0.4c0.6 0 1 0.1 1.2 0.3 0.2 0.2 0.4 0.6 0.6 1.1 0 0.9 0 1.7 0 2.6 0 2.2 0.1 3.3 0.1 3.5z" id="path23"/><path d="m361.3 255.8c0 1.3-0.1 2.5-0.5 3.6-0.3 0.8-0.8 1.8-1.6 3.2-1.6 2.6-3.7 4.1-6.4 4.5-1.7 0.3-3.3 0.4-4.6 0.3-0.5 0-1-0.1-1.5-0.1-0.9-0.1-1.7-0.3-2.5-0.6-0.4-0.2-0.8-0.3-1.3-0.5-1.4-0.5-2.4-1.3-3.2-2.2-1.5-1.9-2.5-3.7-2.9-5.4-0.1-0.4-0.2-1-0.2-1.8 0-0.2 0-0.5 0-0.7-0.1-1.3 0.1-2.9 0.6-4.7 0.7-2.4 2-4.4 3.9-6.2 2.1-1.9 4.4-3 7.1-3.3 2.1 0 4.1 0.4 6 1.2 4.6 2 7 6.3 7.1 12.7zm-4.4-0.3c0-0.7 0-1.5 0-2.2l0-0.3c0-5.5-2.2-8.3-6.6-8.3-1.7 0-3.3 0.5-4.8 1.6-1.8 1.4-3 3.6-3.6 6.6-0.4 1.8-0.5 3.4-0.5 4.8 0 1.8 0.5 3.3 1.5 4.6 1 1.5 2.5 2.4 4.4 2.8 0.3 0.1 0.6 0.1 0.9 0.1 2.6 0.2 4.8-0.8 6.5-3 1.5-2 2.2-4.2 2.2-6.7z" id="path25"/><path d="m389.9 268c0 0.5-0.1 0.9-0.2 1.1-0.1 0.2-0.5 0.3-1 0.4-0.5 0.1-0.9 0.1-1.2 0.1-0.4 0-0.9-0.3-1.5-0.9-1.1-0.9-2.1-1.8-3.2-2.6-1.3-1.1-2.6-2.2-4-3.3-0.5-0.4-1.5-1.3-2.9-2.4-0.3-0.3-0.6-0.6-1-0.8h-0.6c-1.5 0.2-2.4 0.3-2.8 0.2l-0.1 0.1c0 1.2 0 2.4 0.1 3.6 0 0.4 0.1 1 0.2 1.8 0.3 0.1 0.7 0.2 1 0.2 0.7 0.2 1.3 0.6 1.8 1.4 0.3 0.5 0.5 0.9 0.5 1.2 0 0.6-0.7 1-2.2 1.2-0.2 0-0.5 0.1-1.1 0.1-0.5 0-1 0-1.4 0-0.5 0-1-0.1-1.5-0.1l-0.2-0.1c-0.3-0.1-0.6-0.1-1-0.2-0.4-0.1-0.9-0.1-1.3-0.2-0.3-0.1-0.5-0.2-0.7-0.4l-0.2-0.3c-0.3-0.6-0.5-1-0.5-1.3 0-0.4 0.3-0.7 0.9-0.8 0.5-0.1 1-0.1 1.5-0.2 0.2-0.1 0.4-0.4 0.3-1.1 0-0.4-0.1-0.9-0.2-1.7-0.1-1.3-0.2-2-0.2-2.1 0-1.4-0.1-2.8-0.1-4.3-0.1-2.8-0.2-5.6-0.3-8.4 0-0.3 0-0.6-0.1-0.9-0.1-0.1-0.3-0.2-0.8-0.2-0.8 0-1.5-0.4-2-1.2-0.3-0.5-0.5-0.9-0.5-1.2 0-0.3 0.2-0.7 0.7-0.9 0.7-0.2 1.3-0.5 2-0.7 0.4-0.2 0.8-0.3 1.2-0.5 0.3 0 0.6 0 0.8 0 1.3-0.3 2.7-0.5 4-0.8 0.3 0 0.7-0.1 1-0.1 1.5-0.2 2.8-0.3 3.7-0.3 3.1 0 6 1 8.6 3.1 1.8 1.4 2.8 2.9 3 4.3 0.1 0.4 0.1 0.7 0.1 0.8 0 2.3-1.7 4.7-5.3 6.9l-0.5 0.3c-1.6 0.5-2.5 0.9-2.5 1.1 0 0.3 0.9 1.3 2.6 2.9 0.5 0.5 1.5 1.4 2.9 2.8 0.3 0.3 0.6 0.6 0.9 0.8 0.5 0.4 1 0.9 1.5 1.3 0.5 0.4 1 0.7 1.6 1.1 0.1 0.6 0.2 0.8 0.2 1.2zm-6.7-22.2c-0.5-0.3-1.5-0.5-2.8-0.5-1.8 0-3.5 0.1-5 0.4-2.3 0.5-3.7 1-4 1.5-0.1 1.4-0.2 2.8-0.3 4.3 0 0.4 0 1.3 0 2.6 0 0.3 0 0.7 0 1.4 0 0.4 0.2 0.6 0.7 0.6 0.1 0 0.5 0 1.2-0.2 0.4-0.1 0.9-0.2 1.3-0.2 0.6-0.1 1.9-0.5 3.8-1.3 1-0.4 2.1-1 3.4-2 1.3-1 2.3-1.9 2.7-2.7 0.4-0.7 0.6-1.3 0.6-1.8-0.1-0.8-0.6-1.5-1.6-2.1z" id="path27"/><path d="m422.8 270.5c0 0.5 0 0.9 0 1.3 0 1.4-0.5 2.3-1.5 2.4-0.7 0-1.7-0.1-3.3-0.2l-0.7 0c-1.2 0-2.3 0-3.5 0-1.2 0-2.3 0.1-3.5 0.1-0.5 0-0.9 0.1-1.4 0.1l-0.4 0c-0.6-0.1-1.1-0.4-1.6-1l-0.3-0.4-0.6-0.7c-0.6-0.7-0.9-1.4-0.8-1.8 0-0.4 0.4-0.8 0.9-1.2 0.6-0.4 0.9-0.7 0.9-0.9 0-0.5 0-1 0-1.5-0.1-1.5-0.2-3.1-0.3-4.6 0-3.1 0-6.2 0-9.3 0-0.7-0.1-1.8-0.2-3.5 0-0.3 0.1-0.7 0.1-1 0-0.7-0.3-1.2-0.9-1.5l-0.6-0.2c-0.5-0.1-0.9-0.5-1.3-1-0.2-0.3-0.4-0.6-0.4-1.1 0-0.8 0.3-1.3 1-1.6 0.3-0.1 0.9-0.3 2-0.4 0.4-0.1 0.7-0.1 1.1-0.2 0.5 0 1 0 1.5 0 0.4 0 0.8 0 1.2 0l0.4 0c1 0 1.8 0.1 2.2 0.2 1.2 0.4 1.8 1.5 1.8 3.3 0 0.6-0.5 1.1-1.5 1.3-0.7 0.2-1.3 0.2-1.8 0.2 0 0-0.1 0.5-0.2 1.4 0 0.1-0.1 2.4-0.1 6.8-0.1 2.5-0.1 4.9-0.2 7.4 0 2.8 0.1 4.6 0.3 5.3 0.1 0.4 0.6 0.7 1.5 0.7 1.1 0.1 2.2 0.1 3.3 0.2 0.5 0 1 0 1.4 0 0.4 0.1 0.7 0.1 1.1 0.2 0.5 0.1 0.7 0 0.8-0.2 0.1-0.1 0.1-0.4 0.1-1.1 0.1-1.5 0.2-2.9 0.3-4.4 0.2-2.6 0.6-3.9 1.3-3.8 0.3 0 0.6 0.3 1 0.7 0.4 0.4 0.7 0.8 0.9 1.2 0.2 0.3 0.3 0.8 0.3 1.4 0 0.4 0 0.7 0 1.1-0.3 2.5-0.4 4.5-0.3 6.3z" id="path29"/><path d="m434.7 246.9-0.5 0.2c-0.6 0.2-1.2 0.3-1.8 0.5-0.5 0.2-0.7 2.5-0.6 7 0.2 5.4 0.3 10.8 0.5 16.3 0 1 0.1 1.5 0.2 1.6 0.4 0.2 0.8 0.4 1.3 0.6 1.1 0.5 1.6 1.6 1.6 3.2 0 0.8-0.7 1.3-2.1 1.5-0.3 0-0.5 0.1-0.8 0.1l-0.1 0-0.5-0.1-0.2 0c-0.6 0-1.2 0.1-1.8 0.1-0.5 0-0.9 0-1.4 0l-0.6 0-0.4-0.1c-0.6-0.1-1.1-0.8-1.6-1.9-0.3-0.6-0.4-1.1-0.4-1.4 0-0.6 0.4-1.1 1.2-1.3l0.2-0.1c0.3-0.1 0.6-0.3 0.8-0.4 0.3-0.1 0.5-0.3 0.5-0.4 0-0.5 0-1.1 0-1.6 0-0.6 0-1.1 0-1.7 0-1 0-2 0-3 0-1.9-0.1-3.7-0.1-5.6-0.1-1.9-0.2-3.7-0.3-5.6 0-0.7 0-1.9-0.1-3.8 0-0.2-0.1-0.9-0.2-2.1l-0.5-0.4-0.6-0.2c-0.3-0.1-0.7-0.5-1.4-1.3-0.4-0.5-0.6-0.9-0.6-1.4 0-0.4 0.1-0.9 0.5-1.4 0.3-0.3 1.4-0.7 3.3-1.2 1.3-0.4 2.6-0.5 3.7-0.5 0.9 0 1.6 0.3 2 0.8l0.2 0.2 0.3 0.5c0.5 0.8 0.7 1.5 0.8 2.2-0.2 0.4-0.3 0.6-0.5 0.7z" id="path31"/><path d="m456.3 254.9c-0.3 0.6-0.7 0.8-1.1 0.8-0.7-0.1-1.2-0.6-1.5-1.7-0.1-0.3-0.3-0.9-0.5-1.7-0.2-0.8-0.3-1.5-0.5-2.3-0.2-1.7-0.4-2.5-0.7-2.5-0.2 0-0.5 0-1 0.1l-0.7 0.1c-0.6 0.2-1.1 0.3-1.7 0.5-0.4 0.1-0.8 0.2-1.2 0.3-0.3 0.1-0.7 0.2-1 0.3-2 0.3-2.9 1.8-2.8 4.4 0 0.7 0.1 2 0.1 4 0 1.4 0 2.9 0.1 4.3 0 0.7 0.1 1 0.3 1.1l0.4 0c1-0.2 2-0.3 3-0.5 2-0.4 3.4-0.5 4-0.4 0.8 0.1 1.5 0.4 2 1 0.7 0.7 1 1.6 1 2.7 0 0.5-0.8 0.8-2.4 1l-0.5 0c-0.5 0-0.9 0.1-1.4 0.1-0.4 0.1-0.9 0.2-1.3 0.4-0.4 0.2-1.2 0.4-2.2 0.5-0.4 0-0.7 0.1-1.1 0.1-1.1 0.1-1.7 0.7-1.8 1.6 0 1.2 0 2.3 0 3.5 0 1.2 0.2 1.9 0.5 2.1 0.4 0.1 0.8 0.3 1.2 0.4 0.3 0.1 0.7 0.5 1 0.9l0.2 0.4c0.3 0.8 0.5 1.4 0.5 2 0 0.5-0.2 0.9-0.7 1.1l-0.5 0.2-0.4 0.1c-0.7 0-1.4 0.2-2.3 0.4l-0.1 0c-0.4 0-0.7 0-1.1 0-0.3 0-0.6 0-1 0l-0.6-0.1c-0.9-0.2-1.6-0.7-2.2-1.6-0.2-0.3-0.3-0.6-0.5-0.9-0.1-0.3-0.2-0.5-0.2-0.8 0-1.1 0.9-1.7 2.6-1.8l0.1-0.6c0-0.6 0-1.3 0-1.9 0 0.1 0 0.1 0-0.2-0.1-0.3-0.1-0.6-0.1-0.9 0-0.6 0-1.2 0-1.7 0-0.5-0.1-1-0.1-1.4-0.1-1.8-0.2-3.5-0.3-5.3 0-0.6-0.1-2.1-0.1-4.5 0-0.7 0-1.6 0.1-2.9 0.1-1.3 0.1-2.3 0.1-2.9 0-0.9-0.1-1.4-0.4-1.6-0.5-0.3-1-0.5-1.5-0.8-0.2-0.2-0.5-0.5-0.9-1-0.7-0.9-1-1.7-1-2.4 0-0.8 0.5-1.3 1.5-1.7l0.7-0.2c0.4 0 0.7-0.1 1.1-0.1 0.8-0.2 1.6-0.4 2.4-0.5 1.4-0.2 2.9-0.5 4.3-0.7 1.3-0.1 2.6-0.2 3.9-0.3 0.9-0.1 2.2-0.3 3.9-0.5l0.4 0c0.6 0 0.9 0.2 1.2 0.5 0.2 0.3 0.4 0.9 0.6 1.8 0 1.4 0 2.8 0 4.3 0.1 3.2 0.2 5 0.2 5.4z" id="path33"/><path d="m481.5 284c0 0.3-0.1 0.7-0.1 1-0.3 1-0.6 1.5-1.1 1.7-1.1-0.1-2.2-0.2-3.3-0.3-1.1 0-2.1 0-3.2 0l-0.3 0.1c-0.7-0.1-1.4-0.1-2.1-0.2-0.5 0-1 0-1.5-0.1-1.3 0-2.6-0.1-3.9-0.1l-0.5 0.1-0.7 0.1c-0.4 0-0.8 0.1-1.3 0.1-0.3 0-0.5 0-0.8 0-0.4 0-0.9-0.1-1.5-0.2-0.8-0.2-1.4-0.7-1.8-1.6-0.2-0.5-0.5-1.5-0.8-3-0.1-0.7 0.2-1.2 0.9-1.4 0.5-0.2 1.1-0.2 1.7 0 0.1 0 0.2-3.6 0.1-10.8 0-2.4 0-4.7-0.1-7.1 0 0.1 0 0 0-0.2 0-0.3 0-0.6 0-1.1 0-1.8 0-3.7 0-5.5 0-1.1 0-1.7-0.1-1.8-0.1-0.4-0.4-0.7-0.9-0.7l-0.7 0c-0.6 0-1.2-0.8-1.8-2.4-0.3-0.8-0.4-1.4-0.3-1.8 0.2-0.6 0.6-1 1.3-1.3 0.3-0.1 0.8-0.2 1.7-0.5 0.6-0.2 1.1-0.4 1.7-0.6 1.6-0.4 3.2-0.9 4.7-1.3 1.6-0.5 3.9-1 6.8-1.5 0.6-0.1 1.1-0.2 1.7-0.3 0.9-0.2 1.9-0.3 2.8-0.5 0.9-0.2 1.3 1.1 1.3 3.7l0 0.7c0 1.4 0 2.8 0 4.1 0 0.5 0 0.9 0 1.4 0 1.2-0.1 2.4-0.2 3.6-0.2 0.6-0.5 0.7-0.9 0.6l-0.2-0.1-0.5-0.3c-0.6-0.4-1-0.8-1.2-1.2-0.2-0.4-0.4-1.2-0.5-2.3-0.1-0.6-0.1-1.2-0.2-1.8 0-0.4 0-0.9 0-1.3-0.1-0.4-0.2-0.7-0.5-0.7l-0.6 0.1c-0.3 0-0.5 0.1-0.8 0.1-0.7 0.1-1.8 0.5-3.2 1-0.5 0.1-1 0.2-1.5 0.3-1.6 0.3-2.5 0.7-2.9 1-0.5 0.6-0.7 1.9-0.7 4.1 0 0.6 0 1.2 0 1.8 0 2 0 3.5-0.2 4.5-0.1 0.5-0.1 1-0.2 1.4-0.1 0.5-0.1 0.9-0.1 1.1 0 0.6 0.2 1 0.7 1.1 0.1 0 1.1-0.1 3.1-0.3 0.3 0 1.1-0.2 2.6-0.5 1.1-0.2 1.9-0.3 2.6-0.2 1.1 0.1 1.8 0.9 2.2 2.3 0.2 0.8 0.3 1.4 0.3 1.9 0 0.7-0.4 1.1-1.1 1.1-0.9 0-1.8 0.1-2.7 0.1-1.5 0.2-2.9 0.5-4.4 0.7-0.9 0.3-1.9 0.6-2.8 0.8-0.1 0.1-0.2 0.5-0.3 1.2 0.1 2.3 0.2 4.7 0.3 7 0.1 0.6 0.3 1 0.6 1 0.2 0.1 1.1-0.1 2.7-0.4 0.4 0 1.3 0.1 2.5 0.1 0.6 0 1.8 0 3.6 0.1l0.6 0.1c1.2 0.1 1.9 0.1 1.9-0.2 0.2-0.6 0.3-1.7 0.4-3.4 0-0.4 0.1-0.8 0.1-1.2 0-0.3 0.1-0.5 0.1-0.8 0-0.3 0.1-0.6 0.1-1l0.1-0.7c0.2-1.2 0.6-1.8 1.1-1.7 0.7 0.1 1.3 0.9 1.9 2.3 0.2 0.4 0.2 1.4 0.2 3.1 0 1 0 1.9 0 2.9 0-0.2 0-0.1 0 0.3 0 0.4 0 0.9 0 1.4 0.1 0.7 0.1 1.5 0.1 2.3z" id="path35"/></g><g id="g37" transform="translate(0,-4)"><path d="m165.1 552.2c0.2 1.3 0.3 2.1 0.3 2.4 0 0.8-0.3 1.2-0.9 1.4-1.9 0.4-3.7 0.8-5.6 1.2-1.8 0-2.7-0.7-2.7-2.1 0-1.1 0.8-2.3 2.5-3.5 0-1.4-0.3-2.9-1-4.5-0.2-0.9-0.6-1.5-1.4-1.7-0.3-0.1-0.9-0.2-1.9-0.3-0.8-0.1-1.6-0.1-2.4-0.2-1.6 0.1-2.9 0.4-3.9 0.9-1.5 0.7-3 1.5-4.6 2.2-0.2 0.5-0.5 1-0.7 1.4-0.3 0.8-0.5 1.3-0.5 1.6 0 0.2 0.2 0.5 0.5 0.9 1 0 1.6 0.8 1.7 2.1 0.1 0.8 0.1 1.4 0.1 1.7 0 1.1-0.4 1.6-1.2 1.6-1.8 0-3.7-0.1-5.5-0.1-1.4 0-2-0.9-2-2.8 0-0.9 0.1-1.6 0.4-2.1 0.2-0.2 0.5-0.4 1-0.6 0.4-0.1 0.7-0.3 1.1-0.4 0.1-0.2 0.2-0.6 0.4-1.1 3.1-12.1 6.2-23.6 9.2-34.6 0.9-1.9 1.8-2.8 2.7-2.5 0.3 0.1 0.6 0.2 0.9 0.3 0.4 0.2 0.8 0.4 1.2 0.7 0.4 0.2 0.9 0.4 1.3 0.6 0.6 0.3 0.9 0.7 1.2 1.3 0.1 0.2 0.3 1 0.5 2.3 0.1 0.5 0.8 4.3 2.2 11.3 0.9 4.6 1.8 9.1 2.8 13.6 0.1 0.7 0.3 2.1 0.6 4 0.4 2.1 0.8 3.3 1.2 3.5 0.4 0.1 1 0.2 1.8 0.4 0.4 0 0.6 0.4 0.7 1.1zm-10.4-19.6c0-0.1-0.5-2.5-1.3-7.3-0.7-4.3-1.2-6.5-1.4-6.6-0.3 0.6-0.6 1.4-0.9 2.5-1.3 4.1-2.5 8.2-3.8 12.5-0.7 2.5-1.4 4.7-1.9 6.6 0.3 0.1 1 0.1 2-0.1 1.1-0.2 2.2-0.4 3.3-0.6 2.3 0.2 3.3 0.3 2.9 0.3 1.4 0 2.1-0.6 2.1-1.7 0-0.6-0.2-1.6-0.5-2.8-0.1-0.9-0.3-1.8-0.5-2.8zM196.2 526" id="path39"/><path d="m196.2 526c0 0.5-0.3 0.8-1 1-0.3 0.1-0.7 0.1-1 0.2-0.7 0.2-1.1 0.5-1.3 1.2 0 0.1 0 0.9 0 2.4 0 2 0.1 4.1 0.1 6.3 0 2.9 0.1 5.8 0.1 8.7 0-0.1 0 0 0 0.2 0 0.3 0 0.6 0 1 0 0.6 0 1.2 0 1.7 0 1.5 0 3 0.1 4.3 0 0.7 0 1.4 0 2 0 0.3 0 0.5 0 0.8 0.1 0.4-0.3 0.8-1 1.2-0.7 0.4-1.3 0.6-1.6 0.6-1 0-1.9-0.8-3-2.4-0.1-0.1-0.7-1.4-2.1-3.9-0.2-0.3-0.4-0.7-0.5-1-0.2-0.3-0.3-0.6-0.5-1-0.7-1.5-1.3-2.9-2-4.4-1.9-4.8-3.8-9.8-5.6-14.9-0.4-1-0.6-1.5-0.7-1.5-0.4 0.3-0.5 1.9-0.5 4.8 0 0.5 0 1 0 1.5 0 0.8 0.1 2 0.2 3.7 0.1 1.6 0.2 2.8 0.2 3.7 0 0.9-0.1 2.3-0.2 4.2-0.1 1.9-0.2 3.3-0.2 4.2 0 0.9 0.3 1.5 0.8 1.8l0.6 0.1c0.8 0.1 1.4 0.8 1.9 2.1l0.1 0.4c0.1 0.2 0.1 0.6 0.1 0.9 0 1.6-1.7 2.4-5.1 2.3-0.4 0-0.8 0-1.2 0l-0.4-0.1c-1.6-0.4-2.4-1-2.4-1.8-0.1-0.9-0.1-1.5-0.1-1.9 0-0.6 0.1-0.9 0.4-1.2 0.5-0.1 1.2-0.5 1.9-1.1 0.1-0.2 0.1-0.8 0.1-1.6 0-0.9 0-1.7 0-2.6 0-0.3 0-0.3 0-0.1-0.1-6.2-0.1-12.3-0.2-18.5 0-2.1-0.1-3.3-0.2-3.6l-0.6-0.4-0.5-0.3-0.3-0.2c-0.3-0.2-0.6-0.5-0.9-1.2l-0.2-0.4c-0.5-1.3-0.7-2.3-0.7-2.8 0.1-0.8 0.6-1.2 1.6-1.3 1 0.1 2 0.2 3 0.3 0.3 0 0.6 0 0.8 0 0.4 0 0.7 0 0.8 0.1 1.6 0.2 2.7 1.3 3.2 3.1l0.2 0.6 0.2 0.6c0.1 0.3 0.1 0.5 0.2 0.8 0.2 0.4 0.4 0.9 0.5 1.3 1.1 3.2 2.2 6.4 3.3 9.5 0.2 0.5 0.6 1.9 1.4 4.3 0.7 2.1 1.4 4 2.2 5.7 0.4 0.9 0.8 1.8 1.2 2.7 0.4 0.9 0.8 1.4 1.2 1.4 0.3 0 0.5-0.5 0.5-1.7 0-0.4 0-0.8 0-1.3 0-0.5 0-0.9 0-1.2 0-0.3 0-0.3 0-0.1l0-0.5c0-0.6 0-1.2 0-1.9-0.1-2.2-0.1-5 0-8.5 0-1.7 0.1-3 0.2-3.7 0.1-0.5 0.1-1.1 0.2-1.6 0-0.4 0.1-0.7 0.1-0.9 0-0.5-0.2-0.8-0.5-1-0.4-0.1-0.7-0.1-1.1-0.2-0.4-0.1-0.8-0.6-1.3-1.7-0.3-0.6-0.4-1.1-0.4-1.5 0-0.5 0.9-1 2.7-1.4l0.2-0.1c0.3-0.1 0.6-0.2 0.9-0.2 0.5-0.1 1.3-0.1 2.5 0.1 2.4 0.4 3.5 1.7 3.6 3.9z" id="path41"/><path d="m211 529.5-0.5 0.2c-0.6 0.1-1.2 0.2-1.8 0.3-0.5 0.1-0.7 2.2-0.6 6.3 0.2 4.9 0.3 9.9 0.5 14.8 0 0.9 0.1 1.4 0.2 1.5 0.4 0.1 0.8 0.3 1.3 0.4 1.1 0.3 1.6 1.2 1.6 2.6 0 0.7-0.7 1.3-2.1 1.7-0.3 0.1-0.5 0.1-0.8 0.2l-0.1 0-0.5 0-0.2 0c-0.6 0.1-1.2 0.3-1.8 0.4-0.5 0.1-1 0.1-1.4 0.2l-0.6 0.1-0.4 0c-0.6 0-1.1-0.5-1.6-1.6-0.3-0.6-0.4-1-0.4-1.3 0-0.6 0.4-1.1 1.2-1.4l0.2-0.1c0.3-0.2 0.6-0.3 0.8-0.5 0.3-0.2 0.5-0.3 0.5-0.5 0-0.5 0-1 0-1.6 0-0.5 0-1.1 0-1.6 0-1 0-1.9-0.1-2.9 0-1.8-0.1-3.5-0.1-5.3-0.1-1.8-0.2-3.5-0.3-5.3 0-0.6 0-1.8-0.1-3.6 0-0.2-0.1-0.9-0.2-2l-0.5-0.4-0.6-0.2c-0.3-0.1-0.7-0.6-1.4-1.4-0.4-0.5-0.6-1-0.6-1.4 0-0.4 0.1-0.8 0.5-1.3 0.3-0.2 1.4-0.5 3.3-0.7 1.3-0.1 2.6-0.1 3.7 0.1 0.9 0.1 1.6 0.5 2 1l0.2 0.2 0.3 0.5c0.5 0.8 0.7 1.4 0.8 2-0.1 0.3-0.2 0.6-0.4 0.6z" id="path43"/><path d="m249.5 533c0 0.7-0.7 1-2.3 1-1 0-1.4 1.8-1.3 5.6 0 0.7 0.1 1.8 0.2 3.3 0.1 1.5 0.2 2.6 0.2 3.3 0 0.8 0 1.6 0 2.3-0.2 1.4-0.3 2.4-0.3 3 0 0.7 0.3 1.1 0.9 1.2 0.3 0 0.6 0 0.8 0 0.3 0 0.6 0.3 1.1 0.8 0.5 0.3 0.8 0.8 0.8 1.4 0 0.4-0.3 0.8-1.1 1.1-0.3 0.1-0.7 0.2-1 0.3-0.5 0.1-0.9 0.2-1.4 0.3-1 0.2-1.8 0.3-2.3 0.3-1 0-1.7 0-1.8-0.1-0.5-0.1-1-0.3-1.5-0.6-0.5-0.4-0.8-0.8-0.8-1.4 0-0.4 0.3-0.7 0.9-1l0.2-0.1c0.3-0.1 0.6-0.2 1-0.3 0.7-0.2 1-0.7 1-1.4 0-0.3 0-0.8-0.1-1.4-0.1-0.6-0.1-1.1-0.1-1.4 0-1.3 0-2.5-0.1-3.8 0-1.6-0.1-3.3-0.1-4.9 0.2-1.7 0.4-2.9 0.3-3.6 0-0.7-0.2-1.1-0.5-1.3-0.2-0.2-1.3 1.5-3.2 5.3-0.7 1.4-2 4.2-4 8.6-0.4 0.9-0.8 1.8-1.2 2.7-0.1 0.3-0.2 0.6-0.3 0.9-0.3 0.8-1.1 1.2-2.4 1.2-1 0-1.9-0.9-2.8-2.8-0.6-1.2-1.3-3.1-2.3-5.7-1-2.8-2-5.5-3-8.4-0.2 0.2-0.3 1.3-0.3 3.2 0 0.4 0 0.9 0 1.3 0 1.4 0 2.7 0.1 4.1 0 1.7-0.1 3.4-0.2 5.1 0 0.8 0 1.4 0 1.8 0 0.5 0.2 0.9 0.5 1 0.2 0.1 0.5 0.1 1.2 0.2 0.4 0.1 0.7 0.3 1 0.6 0 0 0.2 0.4 0.6 1 0.2 0.7 0.3 1.1 0.3 1.3 0 0.8-1 1.2-2.9 1.4-1 0.1-1.8 0.1-2.6 0.1-1.5 0-2.6-0.4-3.3-1.1l-0.4-0.5c-0.2-0.4-0.3-0.8-0.3-1.2 0-0.7 0.6-1.1 1.8-1.2 0.5-0.1 0.8-1.6 0.6-4.5 0-0.7 0-1.3 0-2l0-0.3 0 0.2c0-1.8-0.1-3.7-0.1-5.5 0-1.5 0-3.1 0-4.6 0.2-1.6 0.2-2.8 0.2-3.6 0-0.7-0.2-1.2-0.7-1.5l-0.6-0.2c-0.4-0.1-0.8-0.4-1.1-0.8l-0.3-0.5c-0.4-0.9-0.6-1.5-0.5-1.9 0.1-0.6 0.5-1 1.4-1.1 0.2 0 0.8 0 2 0 0.4 0 0.7 0 1.1 0 0.6 0 1.2 0 1.8 0.1 1.6 0.2 2.7 0.9 3.4 2 0.4 0.7 0.8 2 1.2 3.8 0.3 1.4 0.5 2.7 0.8 4.1 0.1 0.5 0.3 1.4 0.7 2.7l0.2 0.5c0.2 0.5 0.4 1 0.5 1.5l0 0.2c0.2 0.7 0.4 1.5 0.6 2.2 0.1 0.2 0.2 0.5 0.3 0.7l0.1 0.3c0.2 0.6 0.5 1.1 0.7 1.7 0.1 0.3 0.3 0.6 0.4 0.9l0.2 0.1c0.3-0.2 0.5-0.7 0.8-1.5 0.1-0.3 0.3-0.9 0.6-1.7 0.6-1.5 1.2-2.9 1.8-4.4 2.9-7 5-10.8 6.1-11.6 0.4-0.3 1.3-0.4 2.6-0.2 0.7 0.1 1.4 0.2 2.1 0.3 0.3 0.1 0.6 0.1 1 0.2 0.9 0.2 1.6 0.5 2 1 0.8 0.3 1.1 1 1.1 1.9z" id="path45"/><path d="m282.6 554.9c0.2 0.9 0.2 1.4 0.3 1.5 0 0.5-0.3 0.8-1 0.9-1.9 0.3-3.7 0.5-5.6 0.8-1.8 0-2.7-0.4-2.7-1.3 0-0.7 0.8-1.4 2.5-2.2 0-0.9-0.3-1.8-1-2.8-0.2-0.5-0.7-0.9-1.4-1-0.3-0.1-0.9-0.1-1.9-0.1-0.8 0-1.6 0-2.4 0-1.6 0.1-2.9 0.3-3.9 0.6-1.5 0.5-3.1 1-4.6 1.4-0.2 0.3-0.4 0.6-0.7 0.9-0.3 0.5-0.5 0.8-0.5 1 0 0.1 0.2 0.3 0.5 0.5 1 0 1.6 0.4 1.8 1.2 0.1 0.5 0.1 0.8 0.1 1 0 0.6-0.4 1-1.2 1-1.8 0-3.7 0-5.5-0.1-1.4 0-2.1-0.5-2.1-1.6 0-0.5 0.1-1 0.4-1.2 0.2-0.1 0.5-0.2 1-0.3 0.4-0.1 0.7-0.2 1.1-0.3 0.1-0.1 0.2-0.3 0.4-0.7 3-7.2 6.1-14.2 9.1-21.1 0.9-1.2 1.8-1.8 2.8-1.8 0.3 0 0.6 0.1 0.9 0.1 0.4 0.1 0.8 0.2 1.3 0.3 0.4 0.1 0.9 0.2 1.3 0.2 0.6 0.1 1 0.3 1.2 0.7 0.1 0.1 0.3 0.6 0.5 1.4 0.1 0.3 0.8 2.6 2.2 6.9 0.9 2.8 1.8 5.6 2.8 8.4 0.1 0.4 0.3 1.3 0.6 2.5 0.4 1.3 0.8 2.1 1.2 2.2 0.4 0 1 0.1 1.9 0.2 0.4 0.1 0.5 0.4 0.6 0.8zM272.2 543c0-0.1-0.5-1.5-1.3-4.4-0.8-2.6-1.2-3.9-1.5-4-0.3 0.4-0.6 0.9-0.9 1.6-1.3 2.6-2.5 5.2-3.8 7.8-0.7 1.5-1.4 2.9-1.9 4.1 0.3 0.1 1 0 2-0.1 1.1-0.2 2.2-0.3 3.3-0.5 2.3 0.1 3.3 0.1 3 0.1 1.4-0.1 2.1-0.4 2.1-1.1 0-0.4-0.2-1-0.5-1.7 0-0.7-0.3-1.2-0.5-1.8z" id="path47"/><path d="m306.1 553.8c0 0.3 0 0.7 0 1 0 1.1-0.5 1.8-1.6 2-0.7 0-1.8 0.1-3.3 0.3-0.2 0-0.5 0-0.7 0.1-1.2 0.2-2.3 0.3-3.5 0.5-1.2 0.2-2.3 0.4-3.5 0.5-0.5 0.1-0.9 0.2-1.4 0.3l-0.4 0c-0.6 0-1.1-0.2-1.6-0.6l-0.3-0.3-0.6-0.5c-0.6-0.5-0.9-1-0.8-1.4 0-0.3 0.4-0.7 1-1.1 0.6-0.4 0.9-0.7 0.9-0.9 0-0.4 0-0.8 0-1.2-0.1-1.2-0.1-2.5-0.2-3.7 0-2.5 0.1-5.1 0.1-7.6 0-0.5-0.1-1.5-0.2-2.8 0.1-0.3 0.1-0.6 0.2-0.8 0-0.6-0.2-1-0.9-1.3l-0.6-0.2c-0.5-0.1-0.9-0.4-1.3-0.9-0.2-0.2-0.4-0.5-0.4-0.9 0-0.6 0.3-1.1 1-1.3 0.3-0.1 0.9-0.2 2-0.3 0.4 0 0.7-0.1 1.1-0.1 0.5 0 1 0 1.5 0 0.4 0 0.8 0 1.3 0l0.4 0c1.1 0 1.8 0.1 2.2 0.2 1.2 0.4 1.8 1.2 1.8 2.6 0 0.5-0.5 0.9-1.6 1.1-0.7 0.1-1.3 0.2-1.8 0.2-0.1 0-0.1 0.4-0.3 1.1-0.1 0.1-0.1 1.9-0.2 5.4-0.1 2-0.2 3.9-0.3 5.9-0.1 2.3 0 3.6 0.2 4.2 0.1 0.3 0.6 0.5 1.5 0.4 1.1-0.1 2.2-0.1 3.3-0.2 0.5 0 1-0.1 1.4-0.1 0.4 0 0.7 0 1.1 0 0.5 0 0.7-0.1 0.8-0.2 0.1-0.1 0.1-0.3 0.2-0.8 0.1-1.1 0.3-2.3 0.4-3.4 0.2-2 0.7-3 1.4-3 0.3 0 0.6 0.2 1 0.5 0.4 0.3 0.7 0.6 0.8 0.8 0.2 0.2 0.2 0.6 0.2 1 0 0.3 0 0.5 0 0.8-0.1 1.8-0.3 3.3-0.3 4.7z" id="path49"/><path d="m352.2 555.2c0.1 0.5-0.1 0.8-0.4 1.1l-0.7 0.2-0.6 0.3c-0.3 0.1-0.6 0.2-0.9 0.3-1.3 0.5-2.6 0.7-4 0.7-0.6 0-1.2-0.3-1.8-0.8-0.6-0.5-0.9-1.1-0.9-1.6 0-0.4 0.4-0.7 1.2-0.9l0.5-0.2c0.5-0.1 0.8-0.1 0.9-0.2 0.1-0.1 0.2-0.3 0.3-0.7 0 0.1 0-0.4-0.1-1.4 0-0.5 0-1 0-1.5 0-0.5 0-0.9 0-1.1 0-0.3 0-0.7 0-1l0-0.1c-0.2-0.1-0.5-0.2-1-0.2-0.8 0-1.7 0.1-2.7 0.3-0.7 0.1-1.4 0.3-2.2 0.4-1 0.2-2.1 0.5-3.3 0.8-0.9 0.3-1.4 0.5-1.6 0.6-0.3 0.3-0.5 0.7-0.5 1.3 0 0.6 0 1.2 0 1.8l0 0.4 0 0.2c0 0.4 0 0.7 0 1.1 0 0.4 0.2 0.6 0.6 0.7l0.7 0c0.4 0 0.7 0.2 1.1 0.6 0.4 0.4 0.6 0.8 0.6 1.1 0 0.7-0.8 1.3-2.3 1.8-0.1 0-0.5 0.1-1 0.2l-0.2 0c-0.3 0-0.7 0-1 0.1-0.4 0.1-0.8 0.1-1.2 0.2-0.5 0.1-0.8 0.1-1.1 0.1-0.6 0-1.2-0.2-1.5-0.5l-0.4-0.3c-0.5-0.5-0.7-0.9-0.7-1.2 0-0.5 0.5-0.9 1.6-1.2 0.3-0.1 0.5-0.2 0.8-0.3 0.2 0 0.2-0.3 0.2-0.8 0 0.1-0.1-1.1-0.3-3.5 0-0.7 0-1.5 0-2.4-0.1-3.6-0.2-7.2-0.2-10.8 0-0.3 0-0.8-0.2-1.3l-0.2-0.1c-0.3 0-0.6-0.1-0.9-0.1-0.3-0.1-0.6-0.2-0.8-0.3l-0.4-0.4c-0.6-0.6-0.8-1.2-0.6-1.7 0.2-0.5 1-1 2.3-1.3 0.3-0.1 0.7-0.2 1-0.3 0.7-0.1 1.4-0.3 2.1-0.4 1.2-0.3 2-0.4 2.4-0.4 0.7 0 1.3 0.2 1.8 0.6 0.5 0.4 0.8 1 0.8 1.6 0 0.6-0.4 1-1.3 1.3-0.4 0.2-0.8 0.3-1.2 0.4-0.2 0-0.3 0.9-0.3 2.5 0 0.5 0 1 0 1.5-0.1 0.3-0.2 0.6-0.3 1 0 0.8 0 1.5 0 2.3 0 0.4 0 0.7 0 1.1l0 0.7c0 0.5 0.2 0.8 0.4 0.8 0.3 0 1.1-0.2 2.4-0.5 1.8-0.4 3.3-0.7 4.5-0.9 1.1-0.1 2.3-0.3 3.4-0.4 0.7 0 1-0.4 1-1.2 0-0.4-0.1-1-0.2-1.9-0.1-0.8-0.2-1.4-0.2-1.8 0-0.4 0.1-1 0.2-1.9 0.1-0.8 0.2-1.4 0.2-1.9 0-0.5-0.1-0.8-0.4-0.9-0.3 0-0.6-0.1-0.9-0.1-0.4-0.1-0.9-0.3-1.5-0.8-0.5-0.3-0.7-0.8-0.7-1.4 0-0.4 0.1-0.7 0.4-0.8 0.2-0.2 0.5-0.3 0.7-0.5 0.3-0.1 0.7-0.3 1.1-0.5l0.2 0 0.6-0.1 0.2 0c0.4-0.1 0.7-0.3 1.1-0.4 0.3-0.1 0.5-0.1 0.8-0.2 0.9-0.2 1.6-0.3 2.3-0.4 0.7 0 1.2 0 1.4 0.1 0.3 0.1 0.5 0.5 0.7 1.1 0.2 0.6 0.3 1.1 0.3 1.3 0 0.3-0.3 0.6-0.9 0.9-0.3 0.1-0.5 0.3-0.8 0.4l-0.4 0.3c-0.3 0.4-0.4 1.1-0.5 2 0 0.3 0 1 0 2 0 1.7 0 3.4-0.1 5.1 0 1.1 0 2.3 0 3.4 0 2.2-0.1 4.5-0.1 6.7 0 0.3 0.3 0.5 0.7 0.5l0.6 0c0.3 0 0.6 0.2 0.9 0.6 0.3 0.3 0.4 0.7 0.5 1.1z" id="path51"/><path d="m385.7 554.1c0.1 1 0.2 1.6 0.2 1.7 0 0.6-0.3 0.9-1 1-1.9 0.3-3.7 0.7-5.6 1-1.8 0-2.7-0.5-2.7-1.4 0-0.8 0.9-1.6 2.6-2.5 0-1-0.3-2-0.9-3.1-0.2-0.6-0.6-1-1.3-1.1-0.3 0-0.9 0-1.9 0-0.8 0-1.6 0.1-2.4 0.1-1.6 0.2-2.9 0.5-3.9 0.9-1.5 0.6-3.1 1.2-4.6 1.7-0.2 0.3-0.5 0.6-0.7 0.9-0.4 0.5-0.5 0.8-0.5 1 0 0.1 0.2 0.3 0.5 0.5 1 0 1.6 0.4 1.7 1.2 0.1 0.5 0.1 0.9 0.1 1 0 0.7-0.4 1-1.2 1-1.8 0-3.7 0-5.5 0-1.4 0-2-0.5-2-1.6 0-0.5 0.1-0.9 0.4-1.2 0.2-0.1 0.5-0.2 1-0.4 0.4-0.1 0.7-0.2 1.1-0.3 0.1-0.1 0.3-0.4 0.5-0.7 3.2-7.4 6.5-14.9 9.8-22.7 1-1.5 1.9-2.3 2.8-2.4 0.3 0 0.6 0 0.9 0 0.4 0 0.8 0.1 1.2 0.1 0.4 0 0.9 0 1.3 0 0.6 0 0.9 0.2 1.2 0.6 0.1 0.1 0.3 0.6 0.5 1.4 0.1 0.3 0.7 2.7 2 7.4 0.8 3.1 1.7 6.1 2.5 9.2 0.1 0.5 0.3 1.4 0.5 2.8 0.3 1.5 0.7 2.3 1.1 2.5 0.4 0 1 0.1 1.8 0.2 0.3 0.4 0.5 0.7 0.5 1.2zm-10-12.8c0-0.1-0.4-1.6-1.2-4.7-0.7-2.7-1.1-4.1-1.3-4.1-0.3 0.4-0.6 1.1-1 1.9-1.3 3-2.7 5.9-4 8.8-0.8 1.7-1.4 3.2-2 4.4 0.3 0 1-0.1 2-0.3 1.1-0.2 2.2-0.5 3.3-0.7 2.3-0.1 3.3-0.2 3-0.1 1.4-0.2 2.1-0.6 2.1-1.4 0-0.4-0.1-1.1-0.4-1.9-0.1-0.7-0.3-1.3-0.5-1.9z" id="path53"/><path d="m415.1 527.4c-0.1 0.1-0.3 0.5-0.6 1.2-0.4 0.9-0.7 1.8-1.1 2.7-2.5 7.4-5 14.5-7.6 21.3-0.2 0.9-0.5 1.9-0.9 3.1-0.2 0.6-0.4 1.2-0.6 1.9-0.3 0.5-0.5 0.7-0.8 0.7-0.3 0-0.6-0.1-1-0.3-0.4-0.2-0.7-0.3-1.1-0.5-0.9-0.4-1.6-1.2-2.1-2.5 0-0.1-0.4-1.3-1-3.4-0.4-1.3-0.8-2.6-1.2-3.9-0.1-0.4-0.3-1-0.5-1.8l-0.2-0.6c-0.7-2.7-1.3-5.3-2-8-0.1-1.3-0.2-2.2-0.3-2.6-0.3-1.1-0.7-1.6-1.3-1.7l-0.2 0-0.5 0c-0.7 0-1.2-0.3-1.5-1.1l-0.2-0.3c-0.3-0.8-0.3-1.3-0.3-1.5 0.1-0.2 0.3-0.3 0.8-0.6l0.6-0.3 0.2-0.1 0.1-0.1c0.8-0.2 1.6-0.4 2.3-0.6 0.4-0.1 0.8-0.3 1.2-0.4 0.4-0.1 0.8-0.3 1.2-0.4 1.1-0.4 2.1-0.6 3-0.7 0.6-0.1 1 0.1 1.4 0.5 0.4 0.4 0.5 1 0.5 1.6 0 0.8-0.6 1.5-1.8 2.3-0.3 0.1-0.5 0.2-0.8 0.4-0.8 0.4-1.1 0.7-1.1 1 0 0.1 0.1 0.5 0.3 1.2 0.3 0.9 0.5 1.8 0.6 2.6 0.4 1.8 0.8 3.6 1.3 5.5 0.6 2.4 1.3 4.7 1.9 7.1 0.3 1.2 0.6 1.8 0.8 1.8 0.2 0 0.3-0.5 0.6-1.5 0.4-0.9 0.7-1.9 1-2.9 1.8-4.6 3.5-9.4 5.3-14.3 1-2 1.6-3.2 1.6-3.5l-0.1-0.2c-0.3-0.1-0.5-0.2-0.8-0.4l-0.3-0.1c-0.3-0.1-0.4-0.3-0.4-0.5-0.7-1.3-1-2-1-2.3 0-0.4 0.6-0.9 1.9-1.4 1.2-0.5 2.5-1 3.7-1.5l0.7-0.2c0.7-0.2 1.3-0.1 1.9 0.4 0.5 0.5 0.8 1.2 0.8 2 0 1-0.3 1.6-0.8 1.9-0.6 0.5-1.1 0.8-1.6 1z" id="path55"/><path d="m444.7 552.3c0 0.3-0.1 0.6-0.1 0.9-0.3 0.9-0.6 1.4-1.1 1.7-1.1 0.2-2.2 0.4-3.3 0.6-1.1 0.3-2.2 0.5-3.3 0.8l-0.3 0.1c-0.7 0.1-1.4 0.2-2.1 0.3-0.5 0.1-1 0.2-1.5 0.3-1.3 0.3-2.7 0.6-4 0.8l-0.6 0.2-0.7 0.2c-0.4 0.1-0.9 0.2-1.3 0.4-0.3 0.1-0.5 0.1-0.8 0.2-0.4 0.1-0.9 0.2-1.6 0.2-0.8 0-1.4-0.3-1.8-1-0.2-0.4-0.5-1.2-0.7-2.4-0.1-0.6 0.2-1.1 1-1.4 0.5-0.2 1.1-0.4 1.7-0.4 0.1 0 0.2-3.1 0.3-9.3 0-2 0.1-4 0.1-6l0-0.2c0-0.2 0-0.5 0-0.9 0-1.6 0-3.1 0.1-4.7 0-0.9 0-1.4 0-1.6-0.1-0.4-0.4-0.5-0.9-0.4l-0.7 0.1c-0.6 0.1-1.1-0.5-1.8-1.7-0.3-0.6-0.4-1.1-0.3-1.5 0.2-0.6 0.7-1 1.4-1.4 0.3-0.1 0.9-0.4 1.7-0.8 0.6-0.3 1.1-0.6 1.7-0.9 1.6-0.7 3.2-1.4 4.7-2.1 1.6-0.7 3.9-1.6 6.8-2.7 0.6-0.2 1.1-0.4 1.7-0.6 0.9-0.3 1.9-0.7 2.8-1.1 0.9-0.3 1.3 0.6 1.2 2.8l0 0.5c0 1.2 0 2.3 0 3.5 0 0.4 0 0.8 0 1.2 0 1-0.1 2-0.3 3.1-0.2 0.5-0.5 0.7-0.9 0.7l-0.2 0-0.5-0.1c-0.6-0.2-1-0.5-1.2-0.8-0.2-0.3-0.3-0.9-0.4-1.8-0.1-0.5-0.1-1-0.2-1.5 0-0.4 0-0.7 0-1.1 0-0.4-0.2-0.5-0.5-0.5l-0.6 0.2c-0.3 0.1-0.5 0.2-0.8 0.3-0.7 0.3-1.8 0.8-3.2 1.6-0.5 0.2-1 0.4-1.5 0.6-1.6 0.6-2.5 1.1-2.9 1.5-0.5 0.6-0.7 1.8-0.8 3.6 0 0.5 0 1 0 1.5 0 1.7-0.1 3-0.3 3.8-0.1 0.4-0.1 0.8-0.2 1.3-0.1 0.4-0.1 0.7-0.1 1 0 0.5 0.2 0.8 0.7 0.8 0.1 0 1.1-0.3 3.1-0.9 0.3-0.1 1.2-0.4 2.6-1 1.1-0.4 1.9-0.7 2.6-0.8 1.1-0.1 1.8 0.4 2.1 1.4 0.2 0.6 0.3 1.2 0.3 1.6 0 0.6-0.4 1-1.1 1.2-0.9 0.2-1.8 0.5-2.7 0.7-1.5 0.5-3 1.1-4.5 1.6-0.9 0.4-1.9 0.9-2.8 1.3-0.1 0.1-0.2 0.5-0.3 1.1 0 2 0.1 3.9 0.2 5.9 0.1 0.5 0.3 0.8 0.6 0.8 0.2 0 1.2-0.3 2.7-0.9 0.4-0.1 1.3-0.2 2.5-0.5 0.6-0.2 1.9-0.4 3.7-0.7l0.6-0.1c1.2-0.2 1.9-0.4 2-0.6 0.2-0.5 0.3-1.5 0.4-3 0-0.3 0.1-0.7 0.1-1l0.1-0.7c0-0.3 0.1-0.6 0.1-0.8l0.1-0.6c0.3-1.1 0.6-1.7 1.1-1.7 0.7-0.1 1.3 0.4 1.9 1.5 0.2 0.3 0.2 1.1 0.2 2.6 0 0.8 0 1.6 0 2.4 0-0.2 0-0.1 0 0.2 0 0.3 0 0.7-0.1 1.2 0.1 0.5 0.1 1.2 0.1 1.9z" id="path57"/><path d="m476.8 513.5c0 0.7-0.3 1.3-1 1.8-0.3 0.2-0.7 0.5-1 0.7-0.7 0.5-1.1 1.2-1.3 2.1 0 0.2 0 1.2 0 3.2 0 2.7 0 5.4 0 8.3 0 3.8 0 7.6 0 11.5 0-0.2 0-0.1 0 0.3 0 0.4 0 0.9 0 1.4 0 0.8 0 1.5 0 2.3 0 2 0 3.9 0 5.7 0 0.9 0 1.8 0 2.7 0 0.3 0 0.7 0 1 0 0.5-0.3 1.1-1 1.7-0.7 0.6-1.3 0.9-1.6 0.9-1 0-1.9-1-2.9-2.9-0.1-0.1-0.7-1.7-2-4.7-0.2-0.4-0.3-0.8-0.5-1.2-0.1-0.4-0.3-0.7-0.4-1.1-0.6-1.7-1.3-3.4-1.9-5-1.8-5.4-3.5-10.6-5.3-15.7-0.3-1-0.6-1.5-0.7-1.4-0.4 0.5-0.6 2.4-0.6 5.5 0 0.6 0 1.1 0 1.7 0 0.9 0 2.3 0.1 4 0.1 1.8 0.1 3.1 0.1 4 0 1-0.1 2.6-0.3 4.7-0.2 2.1-0.3 3.7-0.3 4.7 0 1 0.3 1.6 0.8 1.9l0.6 0c0.8 0 1.4 0.8 1.8 2.2l0.1 0.4c0.1 0.3 0.1 0.6 0.1 1 0 1.8-1.7 2.8-5.1 2.8-0.4 0-0.8 0-1.2 0l-0.3 0c-1.6-0.4-2.4-1-2.4-1.8-0.1-0.9-0.1-1.5-0.1-2 0-0.6 0.1-1 0.4-1.2 0.5-0.2 1.2-0.6 1.9-1.3 0.1-0.3 0.2-0.8 0.2-1.7 0-0.9 0-1.8 0-2.8 0-0.3 0-0.4 0-0.1 0.1-6.6 0.1-13.2 0.2-19.8 0-2.2 0-3.5-0.1-3.8l-0.6-0.2-0.5-0.1-0.3-0.1c-0.3-0.1-0.6-0.4-0.9-0.9l-0.2-0.4c-0.5-1.2-0.7-2-0.6-2.6 0.1-0.8 0.6-1.5 1.6-2.1 1-0.4 2-0.7 3-1.1 0.3-0.1 0.6-0.3 0.8-0.4 0.4-0.2 0.7-0.3 0.8-0.2 1.6-0.5 2.7 0.2 3.1 2l0.2 0.6 0.2 0.6c0.1 0.3 0.1 0.6 0.2 0.9 0.2 0.4 0.3 0.9 0.5 1.3 1 3.3 2 6.6 3.1 10 0.2 0.5 0.6 2.1 1.3 4.8 0.7 2.4 1.3 4.6 2.1 6.5 0.4 1.1 0.8 2.1 1.2 3.2 0.4 1.1 0.8 1.7 1.1 1.6 0.3 0 0.5-0.8 0.5-2.2 0-0.5 0-1.1 0-1.6 0-0.6 0-1.1 0-1.5 0-0.4 0-0.4 0-0.1v-0.6c0-0.8 0-1.6 0-2.4 0-2.7 0-6.4 0.2-10.9 0.1-2.2 0.1-3.8 0.3-4.9 0.1-0.7 0.1-1.4 0.2-2.1 0.1-0.6 0.1-1 0.1-1.2 0-0.6-0.2-1-0.5-1-0.4 0.1-0.7 0.2-1.1 0.2-0.4 0.1-0.8-0.5-1.2-1.6-0.3-0.6-0.4-1.2-0.4-1.7 0-0.6 0.9-1.7 2.7-3.1l0.2-0.2c0.3-0.2 0.6-0.5 0.9-0.7 0.5-0.4 1.3-0.8 2.5-1.1 2.2-0.8 3.2 0.4 3.2 3.3z" id="path59"/></g><g id="g61" transform="translate(0,-4)"><path d="m288.1 341.5c0 0 3.1 4.7 2.5 8.4-0.6 3.7-1.2 4.8-0.9 6.3 0.3 1.5 3.1 7.3 2.1 14.3-1 7-6.8 12.7-9 14.9-2.3 2.2-2.8 4.3-1.5 5.6 1.3 1.3 8.1 5.4 10.2 17.2 2.1 11.8 1.8 21 1.8 21 0 0 9.1 0.1 12.7 9.6 3.6 9.5-1.2 23.9-10.4 32-9.2 8.1-18.7 9.6-22.3 9.6-3.6 0-4.5 0-5.7 0-1.2 0-4.9 2.4-4.9 6.2 0 3.7 5.6 11.9 22.1 12.5 16.6 0.6 28.5-8.6 32.2-12.3 3.7-3.7 3.7-5.2 7.2-4.3 3.4 0.9 2.5 3.5-0.5 6.4-3 3-18.4 18.1-42.5 15.9-24.1-2.1-26.6-9-28.8-13.4-2.2-4.4-0.7-6.2-7.4-8.6-6.7-2.4-15.1-6.1-21.2-10.6-6.1-4.6-8.4-7.8-13.3-14.5-4.9-6.6-5.7-11.1-3.9-17.3 2.9-10.4 6.3-11 10.1-11 3.8 0 5-1.5 5-5.6 0-4.1 3.4-15.2 9.3-22.4 5.9-7.1 7.3-9.8 8.6-12.9 1.3-3.1-1.2-5.8-2.3-6.8-1.1-1.1-8.1-4-7.3-9.5 0.8-5.5 4.8-18.5 6-21.9 1.2-3.4 0-7.1 0.7-7.8 0.7-0.7 7.9 3.3 10 6.3 0 0 5.3-4 14.2-4 8.9 0 11.7 1.3 14.3 2.7 2.6 1.5 4.4 1.1 5.5 0 1.1-1.1 4.9-6 7.4-6zM342.5 323.2" id="path63"/><path d="m342.5 323.2c0 0-8.2 4.1-12.3 11.6-4.1 7.5-6.3 12.6-8.1 21.6-1.9 9 2.7 15.5 8.5 15.5 5.8 0 5.4-1.4 7.1-3 1.7-1.7 5.3 1.4 5.9 3.2 0.6 1.9 0.6 4.7 0.6 5.7 0 1-7.1 4.6-9.1 10.6-2 6.1-3 12.3-4.1 13.4-1.1 1.1-7.2-2.9-14.6 2-7.3 4.9-8.7 13.9-6.1 22.6 2.6 8.7 4.6 14.8 7.3 19.4 2.7 4.6 5.8 6.9 6.2 9.3 0.4 2.3-2.4 4.8-5 4.8-2.6 0-5.7 1.5-6.1 3.5-0.4 2-1.5 7.4 5.9 10.9 7.4 3.5 13.7 4.1 18.5 4.1 4.8 0 11.7-0.8 13.3-0.1 1.7 0.7 3.4 3 2.5 8.2-0.9 5.2-6.3 7-16.2 8.4-9.9 1.4-17.4 2.9-18.2 6.9-0.8 4 6.8 4.5 15.3 4 8.5-0.5 13.9-3 18.4-4.1 4.5-1.1 11.9-8.6 14.6-14.4 2.6-5.8 4.8-9.7 10.5-10.4 5.7-0.8 16.3 0.3 20.6-4 4.3-4.3 8-12.7 6.2-14.6-1.9-1.9-7.2-1.9-9-3.7-1.8-1.8 0.1-4.7 1.1-5.7 0.9-0.9 7.1-7.6 9.7-20.1 2.6-12.5 2.2-22-4.3-26.3-6.5-4.3-8-2.1-10.7-1.7-2.6 0.5-4.8 0.4-4.8-3.3 0-3.7-6-17.2-14.4-20.8 0-0.7-0.7-3.5 0-5.3 0.7-1.8 3.9-3.9 3.9-3.9 0 0 3.3 4.6 10 3.7 6.7-0.9 5.4-10.4 4.5-17.6-0.9-7.2-4.7-13.7-6.3-20.5-1.6-6.8-11-9.9-11-9.9 0 0-3.9-12.8-15.7-12.8-11.6 0.1-14.6 12.8-14.6 12.8z" id="path65"/></g><g id="g67" transform="translate(0,-10)"><polygon points="302.6" id="polygon69" class="s0"/><polygon points="311.1" id="polygon71" class="s0"/><polygon points="307" id="polygon73" class="s0"/><polygon points="312.9" id="polygon75" class="s0"/><g id="g77"><path d="m306.9 266.2c0.9 36.6 0 68.4 0 68.4 0 0-0.9-31.8 0-68.4zM325.4 300.5" id="path79"/><path d="m325.4 300.5c-19.4 0.9-36.2 0-36.2 0 0 0 16.9-0.9 36.2 0z" id="path81"/></g></g></g></svg>